<?xml version="1.0" encoding="UTF-8"?>
<svg id="thynC_wordmark_blue" data-name="thynC wordmark blue" xmlns="http://www.w3.org/2000/svg" viewBox="0 0 292 76">
  <defs>
    <style>
      .cls-1 {
        fill: #fff;
        fill-rule: evenodd;
      }
    </style>
  </defs>
  <path class="cls-1" d="m288.21,19.71V5.58l-5.06,14.13h-4.22l-4.73-14.13v14.13h-3.87V0h5.97l4.75,15.57,5.06-15.57h5.9v19.71h-3.79Zm-26.17,0h-4.07V4.25h-6.12V0h16.5v4.25h-6.32v15.45Zm-62.56,35.95c-5.74-4.87-8.8-13.44-8.8-24.54,0-13.26,4.72-23.09,12.96-27.24,3.7-1.8,9.91-3.88,16.29-3.88h20.92v11.64h-19.35c-6.02,0-10.09,1.44-12.96,4.6-2.13,2.44-3.33,7.22-3.33,13.71,0,8.48,1.85,14.79,5.28,17.5,2.5,1.89,6.3,2.89,11.48,2.89h18.89v9.83h-21.48c-10.18,0-15.09-.45-19.91-4.51Z"/>
  <path class="cls-1" d="m169.66,60.17v-28.26c0-4.54-1.83-6.39-6.31-6.3h-10.6v34.56h-12.25V15.98h23.58c12.06-.56,17.82,5.09,17.82,17.31v26.87h-12.25Zm-56.64,15.83h-21.38v-9.37h21.38c5.91-.27,6.44-.82,6.71-6.29h-10.65c-12.35.27-18.16-6.2-17.45-19.6V15.04h11.99v24.51c0,9.21,1.07,11.12,6.26,11.3h9.84V15.04h11.99v44.38c0,11.58-5.99,16.58-18.7,16.57Zm-42.36-39.92c.18-7.49-1.63-9.56-8.6-9.56h-9.78v33.65h-12.14V0h12.14v17.14h12.41c12.77-.27,17.93,4.51,18.11,16.51v26.52h-12.14v-24.09ZM7.77,44.56v-18.04H0v-9.38h7.77V0h12.25v17.14h11.34v9.38h-11.34v15.97c-.18,7.31,1.01,8.93,6.49,9.2h4.85v9.38h-8.87c-10.52.09-15.09-4.96-14.72-16.51Z"/>
</svg>